<svg width="1024" height="256" viewBox="0 0 1024 256" fill="none" xmlns="http://www.w3.org/2000/svg">
<path fill-rule="evenodd" clip-rule="evenodd" d="M892.5 209C859.984 209 830.937 194.149 811.771 170.86C804.35 173.54 796.345 175 788 175C780.453 175 773.185 173.806 766.375 171.596C753.806 183.616 736.765 191 718 191C697.741 191 679.492 182.394 666.709 168.637C668.21 175.688 669 183.002 669 190.5C669 208.409 664.495 225.267 656.556 240L472.444 240C466.68 229.303 462.726 217.486 460.992 204.96C447.007 204.396 434.53 197.97 425.954 188.073C415.445 194.376 403.146 198 390 198C383.459 198 377.128 197.103 371.122 195.425C352.223 222.379 320.919 240 285.5 240C227.786 240 181 193.214 181 135.5C181 134.84 181.006 134.182 181.018 133.525C178.511 132.894 176.081 132.071 173.744 131.071C162.297 154.142 138.5 170 111 170C72.3401 170 41 138.66 41 100C41 61.3401 72.3401 30 111 30C130.016 30 147.262 37.583 159.877 49.8901C168.599 41.8858 180.229 37 193 37C205.652 37 217.184 41.795 225.878 49.6667C242.787 37.8991 263.338 31 285.5 31C308.604 31 329.957 38.4978 347.258 51.1929C351.276 44.4879 358.614 40 367 40C377.986 40 387.173 47.7026 389.455 58.0021C389.524 58.0015 389.592 58.0011 389.661 58.0008C389.774 58.0002 389.887 58 390 58C421.481 58 448.108 78.7816 456.912 107.375C458.907 107.127 460.938 107 463 107C473.523 107 483.272 110.317 491.257 115.963C510.114 97.4313 535.972 86 564.5 86C576.775 86 588.555 88.1163 599.496 92.004C608.415 79.8729 622.788 72 639 72C647.591 72 655.666 74.211 662.686 78.0949C675.493 61.6085 695.508 51 718 51C718.361 51 718.722 51.0028 719.082 51.0082C722.041 41.7243 730.735 35 741 35C747.472 35 753.32 37.6735 757.5 41.9764C766.719 37.5066 777.067 35 788 35C796.109 35 803.896 36.3789 811.139 38.9149C830.295 15.1809 859.625 2.45127e-05 892.5 2.59497e-05C950.214 2.84725e-05 997 46.7863 997 104.5C997 162.214 950.214 209 892.5 209Z" fill="white" fill-opacity="0.5"/>
<path fill-rule="evenodd" clip-rule="evenodd" d="M714 127C714 165.66 745.34 197 784 197C822.66 197 854 165.66 854 127C854 88.3401 822.66 57 784 57C745.34 57 714 88.3401 714 127ZM220 143C220 181.66 251.34 213 290 213C308.288 213 324.939 205.987 337.408 194.503C347.34 221.078 372.96 240 403 240C441.66 240 473 208.66 473 170C473 131.34 441.66 100 403 100C384.712 100 368.061 107.013 355.592 118.497C345.66 91.9221 320.04 73 290 73C251.34 73 220 104.34 220 143ZM592 148C592 175.062 613.938 197 641 197C668.062 197 690 175.062 690 148C690 120.938 668.062 99 641 99C613.938 99 592 120.938 592 148Z" fill="white" fill-opacity="0.5"/>
<path fill-rule="evenodd" clip-rule="evenodd" d="M1023.5 15C1023.67 15 1023.83 15.0004 1024 15.0012L1024 256L675 256L517.611 256L315.389 256L216 256L-1.05344e-05 256L-1.84544e-07 19.2218C9.35535 16.4741 19.2555 15 29.5 15C65.7372 15 97.6665 33.4446 116.412 61.4577C117.894 61.1575 119.429 61 121 61C131.804 61 140.868 68.449 143.336 78.4912C169.48 81.5934 191.205 99.1041 200.35 122.86C204.098 115.242 211.937 110 221 110C231.279 110 239.983 116.743 242.93 126.047C254.642 117.228 269.21 112 285 112C295.473 112 305.409 114.3 314.33 118.422C326.964 113.002 340.881 110 355.5 110C392.178 110 424.442 128.896 443.089 157.484C445.347 157.165 447.654 157 450 157C459.379 157 468.143 159.635 475.591 164.206C484.56 154.255 497.549 148 512 148C529.735 148 545.27 157.422 553.871 171.534C557.366 171.181 560.912 171 564.5 171C569.776 171 574.962 171.391 580.028 172.146C580.009 171.766 580 171.384 580 171C580 158.297 590.297 148 603 148C607.894 148 612.432 149.529 616.16 152.135C628.869 134.489 649.593 123 673 123C674.58 123 676.147 123.052 677.701 123.155C683.344 102.324 702.383 87 725 87C736.715 87 747.469 91.1109 755.899 97.9687C769.426 91.5755 784.546 88 800.5 88C812.534 88 824.093 90.0341 834.852 93.7774C837.566 84.098 846.454 77 857 77C865.151 77 872.311 81.2396 876.396 87.634C889.141 74.3032 907.101 66 927 66C929.204 66 931.384 66.1019 933.536 66.3011C951.736 35.5901 985.213 15 1023.5 15Z" fill="white"/>
</svg>
