<svg width="256" height="1024" viewBox="0 0 256 1024" fill="none" xmlns="http://www.w3.org/2000/svg">
<path fill-rule="evenodd" clip-rule="evenodd" d="M209 131.5C209 164.016 194.149 193.063 170.86 212.229C173.54 219.65 175 227.655 175 236C175 243.547 173.806 250.815 171.596 257.625C183.616 270.194 191 287.235 191 306C191 326.259 182.394 344.508 168.637 357.291C175.688 355.79 183.002 355 190.5 355C208.409 355 225.267 359.505 240 367.444V551.556C229.303 557.32 217.486 561.274 204.96 563.008C204.396 576.993 197.97 589.47 188.073 598.046C194.376 608.555 198 620.854 198 634C198 640.541 197.103 646.872 195.425 652.878C222.379 671.777 240 703.081 240 738.5C240 796.214 193.214 843 135.5 843C134.84 843 134.182 842.994 133.525 842.982C132.894 845.489 132.071 847.919 131.071 850.256C154.142 861.703 170 885.5 170 913C170 951.66 138.66 983 100 983C61.3401 983 30 951.66 30 913C30 893.984 37.583 876.738 49.8901 864.123C41.8858 855.401 37 843.771 37 831C37 818.348 41.795 806.816 49.6667 798.122C37.8991 781.213 31 760.662 31 738.5C31 715.396 38.4978 694.043 51.1929 676.742C44.4879 672.724 40 665.386 40 657C40 646.014 47.7026 636.827 58.0021 634.545C58.0015 634.476 58.0011 634.408 58.0008 634.339C58.0002 634.226 58 634.113 58 634C58 602.519 78.7816 575.892 107.375 567.088C107.127 565.093 107 563.062 107 561C107 550.477 110.317 540.728 115.963 532.743C97.4313 513.886 86 488.028 86 459.5C86 447.225 88.1163 435.445 92.004 424.504C79.8729 415.585 72 401.212 72 385C72 376.409 74.2109 368.334 78.0949 361.314C61.6085 348.507 51 328.492 51 306C51 305.639 51.0027 305.278 51.0082 304.918C41.7242 301.959 35 293.265 35 283C35 276.528 37.6735 270.68 41.9764 266.5C37.5066 257.281 35 246.933 35 236C35 227.891 36.3788 220.104 38.9149 212.861C15.1808 193.705 0 164.375 0 131.5C0 73.7862 46.7863 27 104.5 27C162.214 27 209 73.7862 209 131.5Z" fill="white" fill-opacity="0.5"/>
<path fill-rule="evenodd" clip-rule="evenodd" d="M127 310C165.66 310 197 278.66 197 240C197 201.34 165.66 170 127 170C88.3401 170 57 201.34 57 240C57 278.66 88.3401 310 127 310ZM143 804C181.66 804 213 772.66 213 734C213 715.712 205.987 699.061 194.503 686.592C221.078 676.66 240 651.04 240 621C240 582.34 208.66 551 170 551C131.34 551 100 582.34 100 621C100 639.288 107.013 655.939 118.497 668.408C91.9221 678.34 73 703.96 73 734C73 772.66 104.34 804 143 804ZM148 432C175.062 432 197 410.062 197 383C197 355.938 175.062 334 148 334C120.938 334 99 355.938 99 383C99 410.062 120.938 432 148 432Z" fill="white" fill-opacity="0.5"/>
<path fill-rule="evenodd" clip-rule="evenodd" d="M15 0.5C15 0.333242 15.0004 0.166575 15.0012 0H256V349V506.389V708.611V808V1024H19.2219C16.4741 1014.64 15 1004.74 15 994.5C15 958.263 33.4446 926.333 61.4577 907.588C61.1575 906.106 61 904.571 61 903C61 892.196 68.449 883.132 78.4912 880.664C81.5934 854.52 99.1041 832.795 122.86 823.65C115.242 819.902 110 812.063 110 803C110 792.721 116.743 784.017 126.047 781.07C117.228 769.358 112 754.79 112 739C112 728.527 114.3 718.591 118.422 709.67C113.002 697.036 110 683.119 110 668.5C110 631.822 128.896 599.558 157.484 580.911C157.165 578.653 157 576.346 157 574C157 564.621 159.635 555.857 164.206 548.409C154.255 539.44 148 526.451 148 512C148 494.265 157.422 478.73 171.534 470.129C171.181 466.634 171 463.088 171 459.5C171 454.224 171.391 449.038 172.146 443.972C171.766 443.991 171.384 444 171 444C158.297 444 148 433.703 148 421C148 416.106 149.529 411.568 152.135 407.84C134.489 395.131 123 374.407 123 351C123 349.42 123.052 347.853 123.155 346.299C102.324 340.656 87 321.617 87 299C87 287.285 91.1108 276.531 97.9687 268.101C91.5754 254.574 88 239.454 88 223.5C88 211.466 90.0341 199.907 93.7773 189.148C84.098 186.434 77 177.546 77 167C77 158.849 81.2396 151.689 87.634 147.604C74.3032 134.859 66 116.899 66 97C66 94.7961 66.1019 92.616 66.3011 90.4642C35.59 72.2645 15 38.7868 15 0.5Z" fill="white"/>
</svg>
